<svg xmlns="http://www.w3.org/2000/svg" viewBox="0 0 1584.000000 672.000000" role="img" aria-label="buygroup">
<g transform="translate(0.000000,672.000000) scale(0.100000,-0.100000)"
fill="currentColor" stroke="none">
<path d="M0 3360 l0 -3360 7920 0 7920 0 0 3360 0 3360 -7920 0 -7920 0 0
-3360z m3332 1682 c277 -76 502 -250 602 -467 10 -22 27 -58 37 -79 11 -22 19
-48 19 -58 0 -10 4 -26 9 -36 26 -50 42 -162 39 -272 l-3 -115 -170 0 -170 0
-2 85 c-3 93 -22 218 -35 226 -4 3 -8 13 -8 24 0 87 -158 264 -295 330 -103
49 -120 50 -1024 50 -899 0 -925 -1 -1027 -49 -84 -39 -214 -140 -214 -165 0
-4 -9 -17 -21 -29 -25 -27 -54 -89 -83 -181 -14 -44 -16 -156 -16 -940 l0
-891 29 -82 c67 -191 183 -307 371 -375 l65 -23 890 0 c999 0 942 -4 1075 75
119 71 250 227 250 298 0 10 4 22 8 28 35 40 53 834 19 856 -14 9 -1298 11
-1321 2 -14 -5 -16 -41 -16 -305 1 -165 -2 -304 -5 -309 -13 -21 -51 -10 -68
19 -9 15 -181 194 -382 396 -201 203 -365 373 -365 378 0 8 421 437 618 630
41 40 89 93 109 120 27 37 41 47 64 47 l29 0 2 -312 3 -313 820 -2 c451 -2
832 -3 848 -3 l27 0 0 -567 c0 -609 0 -610 -54 -766 -97 -278 -321 -491 -603
-572 -149 -44 -269 -47 -1183 -37 l-835 9 -90 27 c-162 49 -455 243 -455 301
0 3 -10 16 -22 30 -22 25 -83 125 -94 155 -4 8 -12 29 -19 45 -72 163 -75 209
-75 1118 0 984 2 1009 89 1197 114 246 311 413 586 498 120 37 1915 41 2047 4z
m1710 -884 c2 -233 -1 -371 -8 -405 -13 -62 -11 -67 28 -47 76 39 149 54 268
54 371 0 654 -229 716 -580 11 -65 9 -229 -4 -275 -6 -22 -16 -60 -22 -85 -6
-25 -15 -49 -21 -54 -5 -6 -9 -20 -9 -33 0 -13 -4 -23 -10 -23 -5 0 -10 -8
-10 -18 0 -10 -11 -29 -25 -42 -14 -13 -25 -29 -25 -37 0 -7 -4 -13 -10 -13
-5 0 -10 -5 -10 -10 0 -55 -236 -203 -385 -241 -202 -51 -574 4 -677 100 -18
17 -32 2020 -14 2049 5 8 41 12 111 12 l104 0 3 -352z m4842 -384 c9 -3 16
-17 16 -30 0 -14 7 -41 15 -61 8 -19 15 -46 15 -59 0 -12 5 -26 10 -29 40 -25
-10 -84 -72 -85 -25 0 -58 -21 -51 -32 25 -40 42 -120 42 -193 0 -268 -214
-453 -524 -455 -99 0 -155 -32 -140 -79 7 -24 53 -44 260 -113 423 -140 568
-297 525 -570 -82 -531 -1083 -576 -1249 -57 -14 44 -15 255 -1 264 6 3 10 18
10 32 0 14 11 41 25 59 14 18 25 35 25 39 0 17 91 101 137 127 70 39 70 36 7
97 -90 87 -78 182 34 260 43 30 42 30 -35 108 -124 124 -156 278 -96 454 14
44 30 79 35 79 4 0 8 6 8 14 0 22 110 118 176 153 124 66 281 80 472 41 124
-25 244 -16 292 21 27 21 40 24 64 15z m1934 -29 c194 -46 380 -184 455 -338
83 -170 90 -201 91 -367 1 -146 -3 -165 -70 -315 -172 -392 -705 -524 -1086
-268 -85 56 -228 231 -228 278 0 7 -4 16 -8 19 -5 3 -16 31 -24 63 -64 234
-53 373 45 572 136 276 499 433 825 356z m2887 0 c153 -39 306 -141 386 -257
46 -66 53 -80 89 -168 63 -153 56 -498 -12 -575 -4 -5 -8 -15 -8 -23 0 -26
-103 -172 -153 -217 -191 -173 -491 -231 -711 -139 -34 14 -69 28 -78 31 -17
5 -18 -17 -18 -360 0 -201 -4 -368 -8 -371 -11 -6 -281 -10 -287 -4 -13 13
-12 2049 1 2062 10 10 40 12 126 9 118 -5 138 -13 138 -55 0 -27 33 -22 71 9
81 68 312 97 464 58z m-3847 -7 c7 -7 12 -21 12 -33 0 -28 29 -156 41 -178 16
-29 4 -34 -96 -39 -162 -9 -285 -90 -355 -234 -44 -92 -50 -152 -54 -552 -2
-183 -6 -335 -9 -338 -6 -6 -274 -10 -280 -4 -12 12 -16 1359 -4 1367 12 8
241 5 269 -3 14 -4 18 -19 20 -72 2 -54 6 -67 21 -70 9 -2 17 2 17 9 0 6 10
20 23 31 12 11 35 31 50 45 72 63 305 111 345 71z m-4451 -6 c10 -6 14 -122
16 -487 5 -542 4 -533 61 -606 126 -161 403 -169 559 -16 95 93 99 116 96 650
l-2 452 24 6 c63 18 168 10 182 -13 15 -25 19 -1339 5 -1354 -34 -33 -216 5
-201 42 17 45 -25 84 -47 43 -52 -96 -342 -155 -527 -106 -166 44 -305 161
-342 287 -7 25 -18 59 -25 75 -7 20 -12 190 -13 523 l-3 493 23 9 c27 11 177
13 194 2z m1288 -18 c8 -11 15 -25 15 -31 0 -14 33 -89 86 -198 19 -38 34 -76
34 -83 0 -7 4 -20 8 -30 5 -9 21 -42 35 -72 15 -30 27 -59 27 -63 0 -5 10 -32
23 -60 13 -29 29 -70 36 -92 11 -34 33 -86 73 -167 4 -10 8 -23 8 -30 0 -29
36 -98 51 -98 24 0 59 38 59 64 0 13 10 43 23 67 13 24 29 64 36 89 8 25 24
68 36 95 13 28 35 82 50 120 16 39 32 74 37 79 4 6 8 18 8 28 0 10 4 26 9 36
10 18 33 72 49 112 5 14 22 51 36 83 14 32 26 62 26 67 0 6 4 18 8 28 42 85
28 77 132 80 140 3 139 6 64 -153 -18 -38 -39 -90 -47 -115 -8 -25 -28 -74
-45 -110 -16 -36 -35 -83 -42 -105 -6 -22 -22 -62 -35 -90 -12 -27 -35 -81
-50 -120 -15 -38 -43 -101 -61 -139 -19 -37 -34 -72 -34 -78 0 -5 -12 -35 -26
-66 -14 -31 -29 -66 -34 -77 -10 -27 -41 -105 -50 -130 -4 -11 -23 -54 -42
-95 -19 -41 -41 -91 -49 -110 -7 -19 -22 -51 -34 -70 -11 -19 -34 -62 -50 -95
-16 -33 -32 -62 -35 -65 -11 -11 -60 -79 -60 -85 0 -3 -9 -16 -21 -28 -12 -12
-33 -38 -47 -57 -79 -108 -338 -300 -404 -300 -9 0 -31 19 -50 43 -18 23 -43
53 -55 67 -31 33 -30 35 25 55 101 38 332 219 332 260 0 3 11 18 25 33 14 15
25 32 25 39 0 7 4 13 9 13 5 0 11 8 15 17 8 26 68 134 94 170 12 17 22 40 22
51 0 12 4 23 9 26 41 26 12 130 -95 350 -19 37 -34 72 -34 77 0 9 -44 111 -60
141 -6 10 -10 24 -10 32 0 11 -36 90 -81 178 -5 10 -9 25 -9 34 0 16 -16 55
-76 179 -13 28 -24 55 -24 60 0 6 -16 44 -36 85 -86 176 -83 183 64 177 76 -4
95 -8 107 -23z m5083 11 c6 -6 12 -211 16 -480 l6 -470 26 -52 c79 -163 333
-193 483 -57 88 79 93 110 90 626 -2 235 0 431 5 435 11 11 257 12 279 1 16
-8 17 -51 17 -687 l0 -679 -37 -6 c-31 -4 -174 -2 -219 3 -7 0 -14 11 -17 24
-15 58 -30 63 -82 27 -252 -173 -751 -53 -811 196 -4 16 -10 34 -14 39 -30 39
-42 1080 -13 1089 32 9 262 1 271 -9z"/>
<path d="M5180 3552 c-65 -22 -122 -50 -132 -66 -20 -30 -9 -895 12 -916 117
-117 482 -58 630 102 41 43 65 88 115 212 31 79 19 271 -25 381 -93 236 -364
366 -600 287z"/>
<path d="M9235 3500 c-227 -109 -152 -427 100 -421 205 4 305 185 192 350 -57
83 -196 117 -292 71z"/>
<path d="M9140 2386 c-148 -78 -181 -285 -63 -397 255 -244 789 14 558 269
-97 106 -391 182 -495 128z"/>
<path d="M11507 3481 c-359 -118 -390 -682 -47 -856 228 -116 541 37 585 285
69 387 -207 680 -538 571z"/>
<path d="M14405 3491 c-177 -43 -205 -94 -204 -364 1 -434 5 -450 126 -507
331 -155 666 155 584 540 -51 239 -276 387 -506 331z"/>
</g>
</svg>
